
<svg
xmlns="http://www.w3.org/2000/svg"
width="1000"
height="1000"
viewBox="0 0 1000 1000">

<style>

.edsl-wire{
fill:none;
stroke:#111;
stroke-width:2;
stroke-linecap:round;
stroke-linejoin:round;
}

.edsl-component-label{
font:14px sans-serif;
text-anchor:middle;
fill:#111;
}

.edsl-net-label{
font:12px sans-serif;
fill:#444;
paint-order:stroke;
stroke:white;
stroke-width:3px;
}

.edsl-junction{
fill:#111;
}

</style>



<path
d="M 100 50 L 175 50 L 175 0 L 250 0"
class="edsl-wire"/>






<path
d="M 250 120 L 250 200 L 0 200 L 0 50"
class="edsl-wire"/>






<path
d="M 540 40 L 750 40"
class="edsl-wire"/>






<path
d="M 830 40 L 830 120 L 540 120 L 540 40"
class="edsl-wire"/>






<path
d="M 250 0 L 395 0 L 395 40 L 540 40"
class="edsl-wire"/>






<path
d="M 540 40 L 540 200 L 250 200 L 250 120"
class="edsl-wire"/>






<circle
cx="250"
cy="0"
r="4"
class="edsl-junction"/>

<circle
cx="250"
cy="120"
r="4"
class="edsl-junction"/>



<g>


<g transform="translate(0,0)">



<line
x1="0"
y1="50"
x2="20"
y2="50"
stroke="black"
stroke-width="2"/>

<rect
x="20"
y="38"
width="60"
height="24"
fill="none"
stroke="black"
stroke-width="2"/>

<line
x1="25"
y1="55"
x2="75"
y2="45"
stroke="black"
stroke-width="2"/>

<line
x1="80"
y1="50"
x2="100"
y2="50"
stroke="black"
stroke-width="2"/>



</g>


<text
x="0"
y="60"
class="edsl-component-label">

F1

</text>

</g>




<g>

<g class="edsl-module"><rect x="500" y="0" width="80" height="60" fill="white" stroke="black"/><text x="540" y="34" text-anchor="middle" font-size="12">IndicatorBranch</text></g>

<text
x="500"
y="60"
class="edsl-component-label">

RUN_LAMP

</text>

</g>




<g>


<g transform="translate(750,0)">




<!-- Left terminal -->
<line
x1="0"
y1="40"
x2="20"
y2="40"
stroke="black"
stroke-width="2"/>


<!-- Lamp circle -->
<circle
cx="40"
cy="40"
r="20"
fill="none"
stroke="black"
stroke-width="2"/>


<!-- Cross inside lamp -->
<line
x1="28"
y1="28"
x2="52"
y2="52"
stroke="black"
stroke-width="2"/>


<line
x1="52"
y1="28"
x2="28"
y2="52"
stroke="black"
stroke-width="2"/>


<!-- Right terminal -->
<line
x1="60"
y1="40"
x2="80"
y2="40"
stroke="black"
stroke-width="2"/>


<!-- Label -->
<text
x="32"
y="75"
font-size="12">
LAMP
</text>




</g>


<text
x="750"
y="60"
class="edsl-component-label">

RUN_LAMP/L1

</text>

</g>



</svg>
